<?xml version="1.0" encoding="utf-8"?>
<!-- Generator: Adobe Illustrator 18.0.0, SVG Export Plug-In . SVG Version: 6.00 Build 0)  -->
<!DOCTYPE svg PUBLIC "-//W3C//DTD SVG 1.1//EN" "http://www.w3.org/Graphics/SVG/1.1/DTD/svg11.dtd">
<svg version="1.1" id="Layer_1" xmlns="http://www.w3.org/2000/svg" xmlns:xlink="http://www.w3.org/1999/xlink" x="0px" y="0px"
	 viewBox="0 0 512 512" enable-background="new 0 0 512 512" xml:space="preserve">
<path d="M397.6,235.6c-9.1-71.6-65.4-128.5-136.7-138.4c-7.3-1-14.8-1.6-22.4-1.6c-7.6,0-15.1,0.5-22.4,1.6
	c-71.3,10-127.6,66.8-136.7,138.4c-0.8,6.7-1.3,13.5-1.3,20.4c0,2.8,0.1,5.7,0.2,8.5c0.1,1.2,0.1,2.4,0.2,3.6c0,0.2,0,0.4,0.1,0.7
	c0.1,1,0.2,2.1,0.3,3.1c0,0.4,0.1,0.9,0.1,1.3c0,0.4,0.1,0.9,0.1,1.3c0.2,2.2,0.5,4.3,0.9,6.4c0.3,1.8,0.6,3.7,1,5.5
	c0.5,2.9,1.2,5.7,1.9,8.6c0.2,0.9,0.5,1.9,0.7,2.8c0,0.2,0.1,0.3,0.1,0.5c0.3,1.2,0.7,2.4,1,3.6c0.6,1.9,1.2,3.8,1.8,5.6
	c0.6,1.9,1.3,3.7,2,5.5c0,0,0,0.1,0,0.1c0.7,1.8,1.4,3.6,2.1,5.4c0.3,0.8,0.7,1.6,1,2.4c0.7,1.6,1.4,3.2,2.2,4.7
	c0.8,1.8,1.7,3.5,2.6,5.2c0.8,1.6,1.7,3.1,2.5,4.6c1.4,2.4,2.8,4.8,4.3,7.1c0.7,1.1,1.4,2.2,2.1,3.2c0,0,0,0.1,0,0.1
	c0.7,1,1.4,2.1,2.1,3.1c3.4,4.8,7,9.4,10.9,13.7c0.7,0.8,1.5,1.6,2.2,2.5c0.5,0.6,1.1,1.1,1.6,1.7c0.9,0.9,1.8,1.8,2.7,2.8
	c1.4,1.4,2.7,2.7,4.1,4c0.9,0.9,1.8,1.7,2.8,2.5c1,0.9,2,1.7,3,2.6c2,1.7,4,3.3,6,4.8c0.5,0.4,1,0.8,1.5,1.2
	c3.6,2.7,7.3,5.2,11.1,7.6c0,0,0.1,0,0.1,0c7.7,4.8,15.7,8.9,24.2,12.4c0.6,0.3,1.2,0.5,1.8,0.7c3.6,1.4,7.3,2.7,11,3.9
	c0,0,0.1,0,0.1,0c1.2,0.4,2.5,0.8,3.7,1.1c0,0,0.1,0,0.1,0c2.5,0.7,5.1,1.4,7.7,2c3.3,0.8,6.6,1.4,9.9,2c1.9,0.3,3.9,0.6,5.9,0.9
	c6.7,0.9,13.5,1.3,20.5,1.3c7.6,0,15.1-0.5,22.4-1.6c71.3-10,127.6-66.8,136.7-138.4c0.9-6.7,1.3-13.5,1.3-20.4
	S398.5,242.3,397.6,235.6z M238.5,133.6c67.6,0,122.4,54.8,122.4,122.4s-54.8,122.4-122.4,122.4S116.1,323.6,116.1,256
	S170.9,133.6,238.5,133.6z"/>
<path fill="#5C5C5C" stroke="#000000" stroke-width="8" stroke-miterlimit="10" d="M343.7,488.8V480c0-21.2,3.2-52.8,8.4-85.2
	c-31.2,25.2-70.4,40.8-111.2,40.8c-5.2,0-10.4,0-15.6-0.4c-36.8-2-71.6-16.8-100-40c5.2,32.4,8.4,64,8.4,84.8v9.2L343.7,488.8
	L343.7,488.8z"/>
<path fill="#FFFFFF" d="M238.5,85.6c-94,0-170.4,76.4-170.4,170.4s76.4,170.4,170.4,170.4S408.9,350,408.9,256
	S332.5,85.6,238.5,85.6z M371.3,256c0,73.2-60,132.4-132.8,132.4S106.1,329.2,106.1,256s59.6-132.4,132.4-132.4
	C311.7,123.6,371.3,182.8,371.3,256z"/>
<path d="M351.6,115.5c-31-25-70.3-39.9-113.1-39.9c-42.8,0-82.1,14.9-113.1,39.8c-33.5,27-57.1,65.6-64.7,109.8
	c-1.7,10-2.6,20.3-2.6,30.8c0,11.3,1,22.4,3.1,33.2c8,43.2,31.5,81,64.4,107.4c30.9,24.9,70.2,39.8,113,39.8
	c42.9,0,82.4-15,113.4-40.1c40.9-33.1,67-83.7,67-140.3C418.9,199.2,392.6,148.6,351.6,115.5z M260.9,414.8
	c-7.3,1-14.8,1.6-22.4,1.6c-6.9,0-13.8-0.4-20.5-1.3c-2-0.3-3.9-0.5-5.9-0.9c-3.3-0.5-6.6-1.2-9.9-2c-2.6-0.6-5.2-1.3-7.7-2
	c0,0,0,0-0.1,0c-1.2-0.3-2.5-0.7-3.7-1.1c0,0,0,0-0.1,0c-3.7-1.2-7.4-2.5-11-3.9c-0.6-0.2-1.2-0.5-1.8-0.7
	c-8.5-3.4-16.5-7.6-24.2-12.4c0,0-0.1,0-0.1,0c-3.8-2.4-7.5-4.9-11.1-7.6c-0.5-0.4-1-0.8-1.5-1.2c-2-1.5-4-3.2-6-4.8
	c-1-0.8-2-1.7-3-2.6c-0.9-0.8-1.9-1.7-2.8-2.5c-1.4-1.3-2.8-2.6-4.1-4c-0.9-0.9-1.8-1.8-2.7-2.8c-0.5-0.6-1.1-1.1-1.6-1.7
	c-0.8-0.8-1.5-1.6-2.2-2.5c-3.9-4.4-7.5-9-10.9-13.7c-0.7-1-1.4-2.1-2.1-3.1c0,0,0,0,0-0.1c-0.7-1.1-1.4-2.1-2.1-3.2
	c-1.5-2.3-2.9-4.7-4.3-7.1c-0.9-1.5-1.7-3.1-2.5-4.6c-0.9-1.7-1.8-3.4-2.6-5.2c-0.8-1.6-1.5-3.1-2.2-4.7c-0.3-0.8-0.7-1.6-1-2.4
	c-0.7-1.8-1.5-3.6-2.1-5.4c0,0,0,0,0-0.1c-0.7-1.8-1.3-3.7-2-5.5s-1.2-3.7-1.8-5.6c-0.4-1.2-0.7-2.4-1-3.6c0-0.2-0.1-0.3-0.1-0.5
	c-0.3-0.9-0.5-1.8-0.7-2.8c-0.7-2.8-1.3-5.7-1.9-8.6c-0.4-1.8-0.7-3.7-1-5.5c-0.3-2.1-0.6-4.3-0.9-6.4c0-0.4-0.1-0.9-0.1-1.3
	c0-0.4-0.1-0.9-0.1-1.3c-0.1-1-0.2-2.1-0.3-3.1c0-0.2,0-0.4-0.1-0.7c-0.1-1.2-0.2-2.4-0.2-3.6c-0.2-2.8-0.2-5.6-0.2-8.5
	c0-6.9,0.4-13.7,1.3-20.4c9.1-71.5,65.5-128.4,136.7-138.4c7.3-1,14.8-1.6,22.4-1.6c7.6,0,15.1,0.5,22.4,1.6
	c71.2,10,127.6,67,136.7,138.4c0.9,6.7,1.3,13.5,1.3,20.4s-0.4,13.7-1.3,20.4C388.5,347.9,332.1,404.8,260.9,414.8z M238.5,113.6
	c-78.8,0-142.4,63.6-142.4,142.4s63.6,142.4,142.4,142.4S380.9,334.8,380.9,256S317.3,113.6,238.5,113.6z M238.5,378.4
	c-67.6,0-122.4-54.8-122.4-122.4s54.8-122.4,122.4-122.4S360.9,188.4,360.9,256S306.1,378.4,238.5,378.4z M238.5,113.6
	c-78.8,0-142.4,63.6-142.4,142.4s63.6,142.4,142.4,142.4S380.9,334.8,380.9,256S317.3,113.6,238.5,113.6z M238.5,378.4
	c-67.6,0-122.4-54.8-122.4-122.4s54.8-122.4,122.4-122.4S360.9,188.4,360.9,256S306.1,378.4,238.5,378.4z M238.5,113.6
	c-78.8,0-142.4,63.6-142.4,142.4s63.6,142.4,142.4,142.4S380.9,334.8,380.9,256S317.3,113.6,238.5,113.6z M238.5,378.4
	c-67.6,0-122.4-54.8-122.4-122.4s54.8-122.4,122.4-122.4S360.9,188.4,360.9,256S306.1,378.4,238.5,378.4z"/>
<rect x="46.1" y="225.2" fill="#5C5C5C" stroke="#000000" stroke-width="8" stroke-miterlimit="10" width="21.2" height="64"/>
<path fill="#5C5C5C" stroke="#000000" stroke-width="8" stroke-miterlimit="10" d="M125.3,116.4c49.2-40.4,120-51.2,178.8-27.6
	c17.6,6.4,33.6,15.6,47.6,27.2c-5.2-32-8.4-63.2-8-84v-9.2h-210V32C133.7,52.8,130.1,84,125.3,116.4L125.3,116.4z"/>
<text transform="matrix(1 0 0 1 343.076 441.834)" fill="#FFFFFF" font-family="'Orbitron-Black'" font-size="148">2</text>
<text transform="matrix(1 0 0 1 343.076 441.834)" fill="none" stroke="#000000" stroke-width="8" stroke-miterlimit="10" font-family="'Orbitron-Black'" font-size="148">2</text>
</svg>
