<?xml version="1.0" encoding="utf-8"?>
<!-- Generator: Adobe Illustrator 18.0.0, SVG Export Plug-In . SVG Version: 6.00 Build 0)  -->
<!DOCTYPE svg PUBLIC "-//W3C//DTD SVG 1.1//EN" "http://www.w3.org/Graphics/SVG/1.1/DTD/svg11.dtd">
<svg version="1.1" id="Layer_1" xmlns="http://www.w3.org/2000/svg" xmlns:xlink="http://www.w3.org/1999/xlink" x="0px" y="0px"
	 viewBox="-48 -48 128 128" enable-background="new -48 -48 128 128" xml:space="preserve">
<circle cx="11" cy="16" r="40.1"/>
<path fill="#5C5C5C" stroke="#000000" stroke-width="2" stroke-miterlimit="10" d="M37.3,74.2V72c0-5.3,0.8-13.2,2.1-21.3
	C31.6,57,21.8,60.9,11.6,60.9c-1.3,0-2.6,0-3.9-0.1c-9.2-0.5-17.9-4.2-25-10c1.3,8.1,2.1,16,2.1,21.2l0,2.3L37.3,74.2L37.3,74.2z"/>
<g>
	<path fill="#FFFFFF" d="M11,58.6c-23.5,0-42.6-19.1-42.6-42.6S-12.5-26.6,11-26.6S53.6-7.5,53.6,16S34.5,58.6,11,58.6z M11-17.1
		C-7.2-17.1-22.1-2.3-22.1,16S-7.2,49.1,11,49.1S44.2,34.3,44.2,16S29.3-17.1,11-17.1z"/>
	<path d="M11-24.1c22.1,0,40.1,18,40.1,40.1S33.1,56.1,11,56.1c-22.2,0-40.1-18-40.1-40.1S-11.1-24.1,11-24.1 M11,51.6
		c19.7,0,35.6-15.9,35.6-35.6S30.7-19.6,11-19.6C-8.7-19.6-24.6-3.7-24.6,16S-8.7,51.6,11,51.6 M11-29.1
		c-24.9,0-45.1,20.2-45.1,45.1S-13.9,61.1,11,61.1c24.9,0,45.1-20.2,45.1-45.1S35.9-29.1,11-29.1L11-29.1z M11,46.6
		c-16.9,0-30.6-13.7-30.6-30.6S-5.9-14.6,11-14.6c16.9,0,30.6,13.7,30.6,30.6S27.9,46.6,11,46.6L11,46.6z"/>
</g>
<rect x="-37.1" y="8.3" fill="#5C5C5C" stroke="#000000" stroke-width="2" stroke-miterlimit="10" width="5.3" height="16"/>
<path fill="#5C5C5C" stroke="#000000" stroke-width="2" stroke-miterlimit="10" d="M-17.3-18.9c12.3-10.1,30-12.8,44.7-6.9
	c4.4,1.6,8.4,3.9,11.9,6.8C38-27,37.2-34.8,37.3-40l0-2.3h-52.5v2.3C-15.2-34.8-16.1-27-17.3-18.9L-17.3-18.9z"/>
<text transform="matrix(1 0 0 1 37.1475 62.4583)" fill="#FFFFFF" stroke="#000000" stroke-width="2" stroke-miterlimit="10" font-family="'Orbitron-Black'" font-size="37">2</text>
</svg>
