<?xml version="1.0" encoding="UTF-8" standalone="no"?>
<!-- Created with Inkscape (http://www.inkscape.org/) -->

<svg
   xmlns:dc="http://purl.org/dc/elements/1.1/"
   xmlns:cc="http://creativecommons.org/ns#"
   xmlns:rdf="http://www.w3.org/1999/02/22-rdf-syntax-ns#"
   xmlns:svg="http://www.w3.org/2000/svg"
   xmlns="http://www.w3.org/2000/svg"
   xmlns:sodipodi="http://sodipodi.sourceforge.net/DTD/sodipodi-0.dtd"
   xmlns:inkscape="http://www.inkscape.org/namespaces/inkscape"
   width="744.09448819"
   height="1052.3622047"
   id="svg2"
   version="1.1"
   inkscape:version="0.48.1 "
   sodipodi:docname="shoot.svg">
  <defs
     id="defs4">
    <filter
       color-interpolation-filters="sRGB"
       inkscape:collect="always"
       id="filter3847-6"
       x="-0.15635784"
       width="1.3127156"
       y="-0.23515233"
       height="1.4703047">
      <feGaussianBlur
         inkscape:collect="always"
         stdDeviation="4.551838"
         id="feGaussianBlur3849-5" />
    </filter>
    <filter
       color-interpolation-filters="sRGB"
       inkscape:collect="always"
       id="filter3847-2-1"
       x="-0.15635784"
       width="1.3127156"
       y="-0.23515233"
       height="1.4703047">
      <feGaussianBlur
         inkscape:collect="always"
         stdDeviation="4.551838"
         id="feGaussianBlur3849-7-4" />
    </filter>
  </defs>
  <sodipodi:namedview
     id="base"
     pagecolor="#ffffff"
     bordercolor="#666666"
     borderopacity="1.0"
     inkscape:pageopacity="0.0"
     inkscape:pageshadow="2"
     inkscape:zoom="0.49497475"
     inkscape:cx="1042.9538"
     inkscape:cy="709.67006"
     inkscape:document-units="px"
     inkscape:current-layer="layer1"
     showgrid="true"
     showguides="false"
     inkscape:snap-global="false"
     inkscape:window-width="1920"
     inkscape:window-height="1018"
     inkscape:window-x="-8"
     inkscape:window-y="-8"
     inkscape:window-maximized="1">
    <inkscape:grid
       type="xygrid"
       id="grid3786" />
  </sodipodi:namedview>
  <metadata
     id="metadata7">
    <rdf:RDF>
      <cc:Work
         rdf:about="">
        <dc:format>image/svg+xml</dc:format>
        <dc:type
           rdf:resource="http://purl.org/dc/dcmitype/StillImage" />
        <dc:title />
      </cc:Work>
    </rdf:RDF>
  </metadata>
  <g
     inkscape:label="Layer 1"
     inkscape:groupmode="layer"
     id="layer1">
    <path
       inkscape:connector-curvature="0"
       style="opacity:0.73008848;fill:#8f8f8f;fill-opacity:1;stroke:none"
       d="m 63.294428,92.621903 c 0,0 -21.069262,5.808669 -30.98743,12.577057 C 22.38884,111.96735 4.3205259,125.5313 4.3205259,125.5313 l -4.04623685,4.38342 -0.23603049,4.78805 0.16859321,7.01347 10.92483923,8.22735 c 0,0 10.450103,8.24797 20.231185,14.43158 9.781092,6.1836 31.931552,12.37474 31.931552,12.37474 l 54.860232,0 6.81116,-8.46338 1.58478,-12.57705 0,-21.00671 0,-21.04044 -1.079,-9.54237 -7.48554,-11.498057 -54.691632,0 z m 6.878603,16.893037 33.786079,0 4.61945,7.11463 0.70809,5.90077 0,12.98167 0,12.98168 -1.01156,7.75529 -4.21483,5.26011 -33.887229,0 c 0,0 -13.682409,-3.83375 -19.725405,-7.65414 -6.042984,-3.82038 -12.475897,-8.90172 -12.475897,-8.90172 l -6.777447,-5.09151 -0.101101,-4.34971 0.134874,-2.96724 2.528898,-2.69749 c 0,0 11.136269,-8.36166 17.263944,-12.54333 6.127675,-4.18167 19.152188,-7.78901 19.152188,-7.78901 z"
       id="rect2996-5" />
    <path
       inkscape:connector-curvature="0"
       style="opacity:0.73008848;fill:#8f8f8f;fill-opacity:1;stroke:none"
       d="m 192.78209,92.519403 c 0,0 21.06926,5.808669 30.98743,12.577057 9.91816,6.76839 27.98647,20.33234 27.98647,20.33234 l 4.04624,4.38342 0.23603,4.78805 -0.16859,7.01347 -10.92484,8.22735 c 0,0 -10.4501,8.24797 -20.23119,14.43158 -9.78109,6.1836 -31.93155,12.37474 -31.93155,12.37474 l -54.86023,0 -6.81116,-8.46338 -1.58478,-12.57705 0,-21.00671 0,-21.04044 1.079,-9.54237 7.48554,-11.498057 54.69163,0 z m -6.8786,16.893037 -33.78608,0 -4.61945,7.11463 -0.70809,5.90077 0,12.98167 0,12.98168 1.01156,7.75529 4.21483,5.26011 33.88723,0 c 0,0 13.68241,-3.83375 19.7254,-7.65414 6.04299,-3.82038 12.4759,-8.90172 12.4759,-8.90172 l 6.77745,-5.09151 0.1011,-4.34971 -0.13488,-2.96724 -2.52889,-2.69749 c 0,0 -11.13627,-8.36166 -17.26395,-12.54333 -6.12767,-4.18167 -19.15219,-7.78901 -19.15219,-7.78901 z"
       id="rect2996-5-0" />
    <g
       id="g3004"
       transform="translate(256.07367,0)">
      <path
         id="rect2996-5-2"
         d="m 319.36667,92.656483 c 0,0 -21.06926,5.808669 -30.98743,12.577057 -9.91816,6.76839 -27.98647,20.33234 -27.98647,20.33234 l -4.04624,4.38342 -0.23603,4.78805 0.16859,7.01347 10.92484,8.22735 c 0,0 10.4501,8.24797 20.23119,14.43158 9.78109,6.1836 31.93155,12.37474 31.93155,12.37474 l 54.86023,0 6.81116,-8.46338 1.58478,-12.57705 0,-21.00671 0,-21.04044 -1.079,-9.54237 -7.48554,-11.498057 -54.69163,0 z m 6.8786,16.893037 33.78608,0 4.61945,7.11463 0.70809,5.90077 0,12.98167 0,12.98168 -1.01156,7.75529 -4.21483,5.26011 -33.88723,0 c 0,0 -13.68241,-3.83375 -19.7254,-7.65414 -6.04299,-3.82038 -12.4759,-8.90172 -12.4759,-8.90172 l -6.77745,-5.09151 -0.1011,-4.34971 0.13488,-2.96724 2.52889,-2.69749 c 0,0 11.13627,-8.36166 17.26395,-12.54333 6.12767,-4.18167 19.15219,-7.78901 19.15219,-7.78901 z"
         style="opacity:0.73008848;fill:#8f8f8f;fill-opacity:1;stroke:none"
         inkscape:connector-curvature="0" />
      <path
         transform="matrix(1.1715158,0,0,1.1715158,113.40798,-132.97051)"
         sodipodi:nodetypes="czccccccccczccccc"
         inkscape:connector-curvature="0"
         id="rect2996-8-5"
         d="m 148.39649,224.27475 c 0,0 9.9624,-7.47416 15.43904,-11.21156 5.47665,-3.73739 17.12183,-6.95117 17.12183,-6.95117 l 30.18969,0 4.13412,6.34221 0.61019,5.27198 0,11.61418 0,11.61419 -0.88479,6.93679 -3.76798,4.67739 -30.28123,0 c 0,0 -12.23864,-3.42457 -17.6396,-6.83906 -5.40095,-3.41447 -11.16743,-7.96021 -11.16743,-7.96021 l -6.04068,-4.5509 -0.0863,-3.8782 0.12944,-2.64493 z"
         style="opacity:0.73008848;fill:#06ff00;fill-opacity:1;stroke:none;filter:url(#filter3847-6)" />
      <path
         id="rect2996-5-0-6"
         d="m 448.85433,92.553984 c 0,0 21.06926,5.808669 30.98743,12.577056 9.91816,6.76839 27.98647,20.33234 27.98647,20.33234 l 4.04624,4.38342 0.23603,4.78805 -0.16859,7.01347 -10.92484,8.22735 c 0,0 -10.4501,8.24797 -20.23119,14.43158 -9.78109,6.1836 -31.93155,12.37474 -31.93155,12.37474 l -54.86023,0 -6.81116,-8.46338 -1.58478,-12.57705 0,-21.00671 0,-21.04043 1.079,-9.54238 7.48554,-11.498056 54.69163,0 z m -6.8786,16.893036 -33.78608,0 -4.61945,7.11464 -0.70809,5.90076 0,12.98167 0,12.98168 1.01156,7.75529 4.21483,5.26011 33.88723,0 c 0,0 13.68241,-3.83375 19.7254,-7.65413 6.04299,-3.82039 12.4759,-8.90173 12.4759,-8.90173 l 6.77745,-5.09151 0.1011,-4.34971 -0.13488,-2.96724 -2.52889,-2.69749 c 0,0 -11.13627,-8.36166 -17.26395,-12.54333 -6.12767,-4.18167 -19.15219,-7.78901 -19.15219,-7.78901 z"
         style="opacity:0.73008848;fill:#8f8f8f;fill-opacity:1;stroke:none"
         inkscape:connector-curvature="0" />
    </g>
    <g
       id="g3009"
       transform="translate(-255.69486,-0.12627302)">
      <path
         id="rect2996-5-6"
         d="m 574.93527,92.373303 c 0,0 -21.06926,5.808669 -30.98743,12.577057 -9.91816,6.76839 -27.98647,20.33234 -27.98647,20.33234 l -4.04624,4.38342 -0.23603,4.78805 0.16859,7.01347 10.92484,8.22735 c 0,0 10.4501,8.24797 20.23119,14.43158 9.78109,6.1836 31.93155,12.37474 31.93155,12.37474 l 54.86023,0 6.81116,-8.46338 1.58478,-12.57705 0,-21.00671 0,-21.04044 -1.079,-9.54237 -7.48554,-11.498057 -54.69163,0 z m 6.8786,16.893037 33.78608,0 4.61945,7.11463 0.70809,5.90077 0,12.98167 0,12.98168 -1.01156,7.75529 -4.21483,5.26011 -33.88723,0 c 0,0 -13.68241,-3.83375 -19.7254,-7.65414 -6.04299,-3.82038 -12.4759,-8.90172 -12.4759,-8.90172 l -6.77745,-5.09151 -0.1011,-4.34971 0.13488,-2.96724 2.52889,-2.69749 c 0,0 11.13627,-8.36166 17.26395,-12.54333 6.12767,-4.18167 19.15219,-7.78901 19.15219,-7.78901 z"
         style="opacity:0.73008848;fill:#8f8f8f;fill-opacity:1;stroke:none"
         inkscape:connector-curvature="0" />
      <g
         transform="matrix(-1.0789965,0,0,1.0789965,892.97757,-112.30019)"
         id="g3851-9-8">
        <path
           inkscape:connector-curvature="0"
           style="opacity:0.73008848;fill:#8f8f8f;fill-opacity:1;stroke:none"
           d="m 174.75,189.59375 c 0,0 -19.52672,5.3834 -28.71875,11.65625 -9.19202,6.27286 -25.9375,18.84375 -25.9375,18.84375 l -3.75,4.0625 -0.21875,4.4375 0.15625,6.5 10.125,7.625 c 0,0 9.68502,7.64411 18.75,13.375 9.06499,5.73088 29.59375,11.46875 29.59375,11.46875 l 50.84375,0 6.3125,-7.84375 1.46875,-11.65625 0,-19.46875 0,-19.5 -1,-8.84375 -6.9375,-10.65625 -50.6875,0 z m 6.375,15.65625 31.3125,0 4.28125,6.59375 0.65625,5.46875 0,12.03125 0,12.03125 -0.9375,7.1875 -3.90625,4.875 -31.40625,0 c 0,0 -12.68068,-3.55307 -18.28125,-7.09375 -5.60056,-3.54068 -11.5625,-8.25 -11.5625,-8.25 L 145,233.375 l -0.0937,-4.03125 0.125,-2.75 2.34375,-2.5 c 0,0 10.32095,-7.74948 16,-11.625 5.67905,-3.87552 17.75,-7.21875 17.75,-7.21875 z"
           id="rect2996-5-0-4" />
        <path
           style="opacity:0.73008848;fill:#06ff00;fill-opacity:1;stroke:none;filter:url(#filter3847-2-1)"
           d="m 148.39649,224.27475 c 0,0 9.9624,-7.47416 15.43904,-11.21156 5.47665,-3.73739 17.12183,-6.95117 17.12183,-6.95117 l 30.18969,0 4.13412,6.34221 0.61019,5.27198 0,11.61418 0,11.61419 -0.88479,6.93679 -3.76798,4.67739 -30.28123,0 c 0,0 -12.23864,-3.42457 -17.6396,-6.83906 -5.40095,-3.41447 -11.16743,-7.96021 -11.16743,-7.96021 l -6.04068,-4.5509 -0.0863,-3.8782 0.12944,-2.64493 z"
           id="rect2996-8-7-6"
           inkscape:connector-curvature="0"
           sodipodi:nodetypes="czccccccccczccccc"
           transform="matrix(1.0857457,0,0,1.0857457,-16.129845,-19.514427)" />
      </g>
    </g>
  </g>
</svg>
